<?xml version="1.0" encoding="UTF-8"?>
<svg xmlns="http://www.w3.org/2000/svg" xmlns:xlink="http://www.w3.org/1999/xlink" viewBox="437.78 799.91 447.31 400.26" width="447" height="400">
  <defs>
    <linearGradient id="kont-grad" x1="0" y1="806" x2="0" y2="1127" gradientUnits="userSpaceOnUse"><stop offset="0" stop-color="#ABABAB"/><stop offset="1" stop-color="#FFFFFF"/></linearGradient>
    <style>
      .cls-1 {
        fill: #797979;
        stroke-width: 0px;
      }

      .cls-2 {
        stroke: #e4e4e4;
        stroke-width: 6px;
      }

      .cls-2, .cls-3 {
        stroke-miterlimit: 10;
      }

      .cls-3 {
        fill: #fff;
        stroke: #000;
        stroke-width: 9px;
      }
    </style>
  </defs>
  <g id="body">
    <path fill="url(#kont-grad)" d="m482.39,806.42h172.59c77.95,0,141.37,63.42,141.37,141.37v178.92h-313.96Z"/>
    <path class="cls-1" d="m796.35,1126.71h-313.96v-320.29h172.59c77.95,0,141.37,63.42,141.37,141.37v178.92Zm-312.96-1h311.96v-177.92c0-77.4-62.97-140.37-140.37-140.37h-171.59v318.29Z"/>
  </g>
  <rect id="sq-left" class="cls-2" x="444.29" y="918.4" width="81.34" height="81.2"/>
  <rect id="eye-r" class="cls-3" x="709.4" y="872.98" width="38.2" height="197.49" rx="2.5" ry="2.5"/>
  <rect id="eye-l" class="cls-3" x="635.24" y="872.98" width="38.2" height="197.49" rx="2.5" ry="2.5"/>
  <g id="sq-bottom-left">
    <rect class="cls-3" x="464.97" y="1115.2" width="71.69" height="78.45"/>
    <rect class="cls-2" x="471.86" y="1098.68" width="71.69" height="78.45"/>
  </g>
  <g id="sq-bottom-right">
    <rect class="cls-2" x="755.87" y="1115.2" width="114.43" height="78.45"/>
    <rect class="cls-3" x="764.14" y="1086.3" width="114.43" height="78.45"/>
  </g>
</svg>