<svg xmlns="http://www.w3.org/2000/svg" width="32" height="32" viewBox="0 0 32 32" shape-rendering="crispEdges"><g fill="#FFFFFF"><rect x="14" y="0" width="6" height="4"/><rect x="12" y="2" width="4" height="4"/><rect x="14" y="2" width="6" height="4"/><rect x="18" y="2" width="8" height="4"/><rect x="8" y="4" width="8" height="4"/><rect x="14" y="4" width="6" height="4"/><rect x="18" y="4" width="4" height="4"/><rect x="20" y="4" width="6" height="4"/><rect x="24" y="4" width="4" height="4"/><rect x="6" y="6" width="4" height="4"/><rect x="8" y="6" width="6" height="4"/><rect x="12" y="6" width="4" height="4"/><rect x="14" y="6" width="6" height="4"/><rect x="18" y="6" width="4" height="4"/><rect x="20" y="6" width="6" height="4"/><rect x="24" y="6" width="6" height="4"/><rect x="6" y="8" width="4" height="4"/><rect x="8" y="8" width="6" height="4"/><rect x="12" y="8" width="4" height="4"/><rect x="14" y="8" width="6" height="4"/><rect x="18" y="8" width="4" height="4"/><rect x="20" y="8" width="6" height="4"/><rect x="24" y="8" width="4" height="4"/><rect x="26" y="8" width="4" height="4"/><rect x="28" y="8" width="4" height="4"/><rect x="0" y="10" width="6" height="4"/><rect x="6" y="10" width="4" height="4"/><rect x="8" y="10" width="6" height="4"/><rect x="12" y="10" width="4" height="4"/><rect x="14" y="10" width="6" height="4"/><rect x="18" y="10" width="4" height="4"/><rect x="20" y="10" width="6" height="4"/><rect x="24" y="10" width="4" height="4"/><rect x="26" y="10" width="4" height="4"/><rect x="28" y="10" width="4" height="4"/><rect x="0" y="12" width="4" height="4"/><rect x="2" y="12" width="4" height="4"/><rect x="4" y="12" width="6" height="4"/><rect x="8" y="12" width="6" height="4"/><rect x="12" y="12" width="4" height="4"/><rect x="14" y="12" width="6" height="4"/><rect x="18" y="12" width="4" height="4"/><rect x="20" y="12" width="6" height="4"/><rect x="24" y="12" width="4" height="4"/><rect x="26" y="12" width="4" height="4"/><rect x="28" y="12" width="4" height="4"/><rect x="0" y="14" width="4" height="4"/><rect x="2" y="14" width="6" height="4"/><rect x="6" y="14" width="4" height="4"/><rect x="8" y="14" width="22" height="4"/><rect x="28" y="14" width="4" height="4"/><rect x="0" y="16" width="4" height="4"/><rect x="2" y="16" width="8" height="4"/><rect x="8" y="16" width="22" height="4"/><rect x="28" y="16" width="4" height="4"/><rect x="2" y="18" width="4" height="4"/><rect x="4" y="18" width="26" height="4"/><rect x="28" y="18" width="4" height="4"/><rect x="4" y="20" width="4" height="4"/><rect x="6" y="20" width="22" height="4"/><rect x="26" y="20" width="4" height="4"/><rect x="6" y="22" width="4" height="4"/><rect x="8" y="22" width="20" height="4"/><rect x="26" y="22" width="4" height="4"/><rect x="6" y="24" width="24" height="4"/><rect x="6" y="26" width="4" height="4"/><rect x="8" y="26" width="20" height="4"/><rect x="26" y="26" width="4" height="4"/><rect x="6" y="28" width="24" height="4"/></g><rect x="15" y="1" width="4" height="2" fill="#000000"/><rect x="13" y="3" width="2" height="2" fill="#000000"/><rect x="15" y="3" width="4" height="2" fill="#ABABAB"/><rect x="19" y="3" width="6" height="2" fill="#000000"/><rect x="9" y="5" width="6" height="2" fill="#000000"/><rect x="15" y="5" width="4" height="2" fill="#ABABAB"/><rect x="19" y="5" width="2" height="2" fill="#000000"/><rect x="21" y="5" width="4" height="2" fill="#ABABAB"/><rect x="25" y="5" width="2" height="2" fill="#000000"/><rect x="7" y="7" width="2" height="2" fill="#000000"/><rect x="9" y="7" width="4" height="2" fill="#ABABAB"/><rect x="13" y="7" width="2" height="2" fill="#000000"/><rect x="15" y="7" width="4" height="2" fill="#ABABAB"/><rect x="19" y="7" width="2" height="2" fill="#000000"/><rect x="21" y="7" width="4" height="2" fill="#ABABAB"/><rect x="25" y="7" width="4" height="2" fill="#000000"/><rect x="7" y="9" width="2" height="2" fill="#000000"/><rect x="9" y="9" width="4" height="2" fill="#ABABAB"/><rect x="13" y="9" width="2" height="2" fill="#000000"/><rect x="15" y="9" width="4" height="2" fill="#ABABAB"/><rect x="19" y="9" width="2" height="2" fill="#000000"/><rect x="21" y="9" width="4" height="2" fill="#ABABAB"/><rect x="25" y="9" width="2" height="2" fill="#000000"/><rect x="27" y="9" width="2" height="2" fill="#ABABAB"/><rect x="29" y="9" width="2" height="2" fill="#000000"/><rect x="1" y="11" width="4" height="2" fill="#000000"/><rect x="7" y="11" width="2" height="2" fill="#000000"/><rect x="9" y="11" width="4" height="2" fill="#D6D6D6"/><rect x="13" y="11" width="2" height="2" fill="#000000"/><rect x="15" y="11" width="4" height="2" fill="#D6D6D6"/><rect x="19" y="11" width="2" height="2" fill="#000000"/><rect x="21" y="11" width="4" height="2" fill="#D6D6D6"/><rect x="25" y="11" width="2" height="2" fill="#000000"/><rect x="27" y="11" width="2" height="2" fill="#D6D6D6"/><rect x="29" y="11" width="2" height="2" fill="#000000"/><rect x="1" y="13" width="2" height="2" fill="#000000"/><rect x="3" y="13" width="2" height="2" fill="#D6D6D6"/><rect x="5" y="13" width="4" height="2" fill="#000000"/><rect x="9" y="13" width="4" height="2" fill="#D6D6D6"/><rect x="13" y="13" width="2" height="2" fill="#000000"/><rect x="15" y="13" width="4" height="2" fill="#D6D6D6"/><rect x="19" y="13" width="2" height="2" fill="#000000"/><rect x="21" y="13" width="4" height="2" fill="#D6D6D6"/><rect x="25" y="13" width="2" height="2" fill="#000000"/><rect x="27" y="13" width="2" height="2" fill="#D6D6D6"/><rect x="29" y="13" width="2" height="2" fill="#000000"/><rect x="1" y="15" width="2" height="2" fill="#000000"/><rect x="3" y="15" width="4" height="2" fill="#D6D6D6"/><rect x="7" y="15" width="2" height="2" fill="#000000"/><rect x="9" y="15" width="20" height="2" fill="#D6D6D6"/><rect x="29" y="15" width="2" height="2" fill="#000000"/><rect x="1" y="17" width="2" height="2" fill="#000000"/><rect x="3" y="17" width="6" height="2" fill="#D6D6D6"/><rect x="9" y="17" width="20" height="2" fill="#FFFFFF"/><rect x="29" y="17" width="2" height="2" fill="#000000"/><rect x="3" y="19" width="2" height="2" fill="#000000"/><rect x="5" y="19" width="24" height="2" fill="#FFFFFF"/><rect x="29" y="19" width="2" height="2" fill="#000000"/><rect x="5" y="21" width="2" height="2" fill="#000000"/><rect x="7" y="21" width="20" height="2" fill="#FFFFFF"/><rect x="27" y="21" width="2" height="2" fill="#000000"/><rect x="7" y="23" width="2" height="2" fill="#000000"/><rect x="9" y="23" width="18" height="2" fill="#FFFFFF"/><rect x="27" y="23" width="2" height="2" fill="#000000"/><rect x="7" y="25" width="22" height="2" fill="#000000"/><rect x="7" y="27" width="2" height="2" fill="#000000"/><rect x="9" y="27" width="18" height="2" fill="#000000"/><rect x="27" y="27" width="2" height="2" fill="#000000"/><rect x="7" y="29" width="22" height="2" fill="#000000"/></svg>
